<svg width="83" height="101" viewBox="0 0 83 101" fill="none" xmlns="http://www.w3.org/2000/svg">
<path fill-rule="evenodd" clip-rule="evenodd" d="M75.4111 43.3557C70.7452 49.3725 83.6929 84.8505 61.831 100.987L54.9097 96.6419C62.5351 50.5366 19.5989 52.3924 27.6659 96.6419L21.3651 100.987C-0.890608 83.5711 10.458 47.7242 6.00686 42.6757C-2.34648 33.3394 -3.87394 19.3695 13.8113 2.33357C20.3746 -4.00591 30.0167 5.79146 40.2794 5.79146C50.5421 5.79146 62.2845 -4.47849 69.3848 2.33357C85.3874 17.7904 85.0175 30.9995 75.4111 43.3557ZM65.232 10.7478C60.6854 6.35626 53.9073 10.1945 47.1053 12.3845C49.5238 14.8802 51.5829 17.6794 53.2271 20.7065L47.7616 22.7467C45.0289 18.6779 38.1075 14.2748 33.2984 12.2347C27.3317 10.1254 21.8185 6.82884 17.7851 10.7478C11.2814 17.0296 7.91619 22.2741 7.91619 27.3918C7.91619 35.3449 14.6585 39.6443 15.4461 46.9865C15.4461 46.9865 43.9907 36.7973 65.6258 46.0299C65.6258 37.7885 73.7882 34.273 73.7882 27.1382C73.7643 21.7554 71.1151 16.4303 65.232 10.7478Z" fill="#030303" style="mix-blend-mode:multiply"/>
</svg>
