<?xml version="1.0" standalone="no"?>
<!DOCTYPE svg PUBLIC "-//W3C//DTD SVG 20010904//EN"
 "http://www.w3.org/TR/2001/REC-SVG-20010904/DTD/svg10.dtd">
<svg version="1.0" xmlns="http://www.w3.org/2000/svg"
 width="225.000000pt" height="225.000000pt" viewBox="0 0 225.000000 225.000000"
 preserveAspectRatio="xMidYMid meet">

<g transform="translate(0.000000,225.000000) scale(0.100000,-0.100000)"
fill="#0000FF" stroke="none">
<path d="M975 2239 c-256 -32 -530 -178 -697 -372 -249 -290 -337 -686 -233
-1054 35 -123 122 -292 201 -391 447 -559 1311 -559 1758 0 79 99 166 268 201
391 38 134 51 291 36 426 -16 147 -49 263 -116 396 -211 425 -667 664 -1150
604z m290 -471 c62 -32 129 -103 158 -166 49 -108 18 -261 -70 -349 -66 -66
-123 -88 -228 -88 -105 0 -162 22 -228 88 -88 88 -119 241 -70 349 38 84 123
160 213 189 50 17 172 4 225 -23z m54 -793 c145 -35 285 -108 410 -215 97 -84
121 -119 121 -179 0 -43 -4 -49 -67 -111 -122 -119 -277 -207 -443 -251 -118
-32 -327 -32 -445 0 -176 47 -370 166 -464 285 -35 44 -41 98 -16 145 18 35
120 130 197 182 118 81 259 138 393 159 77 11 232 4 314 -15z"/>
</g>
</svg>
